<?xml version="1.0" encoding="UTF-8"?>
<!DOCTYPE svg PUBLIC "-//W3C//DTD SVG 1.1//EN" "http://www.w3.org/Graphics/SVG/1.1/DTD/svg11.dtd">
<!-- Creator: CorelDRAW 2021 (64 Bit) -->
<svg xmlns="http://www.w3.org/2000/svg" xml:space="preserve" width="98mm" height="98mm" version="1.1" style="shape-rendering:geometricPrecision; text-rendering:geometricPrecision; image-rendering:optimizeQuality; fill-rule:evenodd; clip-rule:evenodd"
viewBox="0 0 9800 9800"
 xmlns:xlink="http://www.w3.org/1999/xlink"
 xmlns:xodm="http://www.corel.com/coreldraw/odm/2003">
 <defs>
  <style type="text/css">
   <![CDATA[
    .str0 {stroke:black;stroke-width:20;stroke-miterlimit:22.9256}
    .fil0 {fill:black}
    .fil1 {fill:#A05905}
   ]]>
  </style>
 </defs>
 <g id="Camada_x0020_1">
  <metadata id="CorelCorpID_0Corel-Layer"/>
  <g id="_1632142120544">
   <path class="fil0 str0" d="M3013.72 8350.72l3702.47 0c485,0 881.81,-396.74 881.81,-881.81l0 -3506.46c0,-485 -396.81,-881.81 -881.81,-881.81l-3702.47 0c-485,0 -881.81,396.81 -881.81,881.81l0 3506.46c0,485.07 396.81,881.81 881.81,881.81z"/>
   <path class="fil1" d="M4881.59 8176.27c-69.34,-203.66 -89.63,-279.18 -93.71,-526.89 -3.25,-198.7 17.92,-419.02 -1.58,-613.03 -23.39,247.01 -76.44,384.07 -45.2,652.81 32.72,281.4 71.33,374.23 -125.74,511.29 -227.89,-189.74 -135.2,-328.66 -525.12,-623.61 -229.15,-173.36 -408.12,-312.32 -537.29,-634.34 -477.45,-1190.32 679.59,-757.37 1240.68,-768.75 749.12,-15.27 1651.82,-315.56 1222.03,793.95 -214.2,553.07 -541.19,519.09 -815.72,941.92 -78.16,120.35 -143.61,244.37 -318.35,266.65zm-293.52 1303.52l-742.29 0c-80.53,-1.57 -143.19,-4.22 -171.23,-8.49l-638.23 -35.32c-92.78,-2.37 -197.72,-23.62 -292.73,-29.43 -600.12,-36.53 -1606.14,-264.51 -2104.06,-561 -453.74,-270.17 -502.2,-549.02 -502.43,-1031.87l0 -3.75c0.23,-596.23 410.43,-1677.53 668.68,-2230.18 33.93,-72.64 57,-130.42 88.51,-204.31 116.22,-272.17 375.95,-748.65 466.64,-968.38 32.49,-78.76 59.69,-130.09 94.04,-198.83l466.55 -983.13c54.3,-134.14 125.5,-257.18 179.8,-391.27l182.13 -403.61c87.26,-207.1 196.7,-574.6 196.7,-813.82 0,-112.6 -58.71,-455.6 -58.71,-746.84 0,-108.61 16.2,-190.2 33.23,-288.88 6.36,-36.85 16.01,-89.16 28.26,-132.83 10.77,-38.2 25.12,-65.03 26.37,-120.07 275.09,0 500.75,260.98 633.96,420.32 436.85,522.61 810.43,340.72 1386.79,341.14 216.34,0.14 401.48,-14.67 629.65,-14.67l321.69 -15.13c105.13,-3.11 218.61,6.17 322.67,0.56 65.4,-3.53 70.08,-14.58 145.83,-15.23 58.25,-0.51 98.67,2.69 155.48,-5.61l284.38 -37.79c-12.95,-55.55 -16.52,-122.9 -27.61,-177.39 -23.26,-113.8 -57.6,-272.12 -4.51,-396.51 29.85,-69.99 159.02,-101.09 238.84,-88.14 53.89,8.73 90.19,15.36 130.25,32.17 165.36,69.52 247.52,201.76 295.88,392.33 110.37,434.66 151.13,1210.79 387.18,1677.58 80.21,158.64 149.69,300.57 234.62,453.6 164.21,295.88 332.88,568.38 498.02,863.8l727.07 1337.59c359.43,748.79 785.69,1807.81 785.69,2626.17 0,149.55 4.5,500.43 -37.92,621.06 -24.18,68.65 10.72,7.48 -44.7,57.84 -424.78,385.88 -1447.22,659.95 -1997.96,769.58 -927.3,184.64 -1999.59,308.74 -2971.35,308.74l-15.18 0zm-2039.09 -6120c232.44,-35.09 250.96,266.55 140.68,312.36 -81.22,33.74 -151.87,-44.51 -176.19,-97.74 -43.72,-95.47 -16.98,-144.17 35.51,-214.62zm4238.58 -2.69c191.51,-103.55 198.47,227.24 54.86,294.63 -87.67,41.13 -151.07,-18.94 -157.01,-103.83 -6.27,-89.3 30.58,-152.14 102.15,-190.8z"/>
   <path class="fil1" d="M3781.31 6443.14c-178.6,77.37 7.51,414.43 183.98,335.7 161.29,-71.89 -7.42,-412.24 -183.98,-335.7z"/>
   <path class="fil1" d="M5623.6 6412.69c-190.99,79.27 -187.97,417.08 35,330.28 195.82,-76.26 191.73,-424.4 -35,-330.28z"/>
  </g>
 </g>
</svg>
